<svg xmlns="http://www.w3.org/2000/svg" xmlns:xlink="http://www.w3.org/1999/xlink" width="300" zoomAndPan="magnify" viewBox="0 0 375 149.999998" height="200" preserveAspectRatio="xMidYMid meet" version="1.0"><defs><g/></defs><g fill="#2b70e4" fill-opacity="1"><g transform="translate(13.708132, 98.171452)"><g><path d="M 6.578125 -68.3125 C 8.347656 -70.082031 10.457031 -70.96875 12.90625 -70.96875 C 15.363281 -70.96875 17.472656 -70.082031 19.234375 -68.3125 C 21.003906 -66.539062 21.890625 -64.429688 21.890625 -61.984375 C 21.890625 -59.535156 21.003906 -57.425781 19.234375 -55.65625 C 17.472656 -53.894531 15.363281 -53.015625 12.90625 -53.015625 C 10.457031 -53.015625 8.347656 -53.894531 6.578125 -55.65625 C 4.816406 -57.425781 3.9375 -59.535156 3.9375 -61.984375 C 3.9375 -64.429688 4.816406 -66.539062 6.578125 -68.3125 Z M 5.125 -43.859375 L 5.125 3.84375 C 5.125 7.832031 3.726562 9.828125 0.9375 9.828125 C 0.363281 9.828125 -0.234375 9.726562 -0.859375 9.53125 C -1.484375 9.332031 -1.992188 9.117188 -2.390625 8.890625 L -2.90625 8.546875 L -7.609375 20.78125 C -7.492188 20.832031 -7.125 21 -6.5 21.28125 C -5.875 21.570312 -5.398438 21.785156 -5.078125 21.921875 C -4.765625 22.066406 -4.238281 22.253906 -3.5 22.484375 C -2.757812 22.710938 -2.046875 22.882812 -1.359375 23 C -0.679688 23.113281 0.164062 23.226562 1.1875 23.34375 C 2.21875 23.457031 3.304688 23.515625 4.453125 23.515625 C 7.296875 23.515625 9.800781 23.015625 11.96875 22.015625 C 14.132812 21.015625 15.785156 19.671875 16.921875 17.984375 C 18.066406 16.304688 18.910156 14.539062 19.453125 12.6875 C 19.992188 10.84375 20.265625 8.863281 20.265625 6.75 L 20.265625 -43.859375 Z M 5.125 -43.859375 "/></g></g></g><g fill="#2b70e4" fill-opacity="1"><g transform="translate(31.059333, 98.171452)"><g><path d="M 9.28125 -5.21875 C 4.40625 -9.550781 1.96875 -15.109375 1.96875 -21.890625 C 1.96875 -28.671875 4.503906 -34.238281 9.578125 -38.59375 C 14.648438 -42.957031 20.921875 -45.140625 28.390625 -45.140625 C 35.742188 -45.140625 41.941406 -42.945312 46.984375 -38.5625 C 52.023438 -34.175781 54.546875 -28.617188 54.546875 -21.890625 C 54.546875 -15.160156 52.078125 -9.613281 47.140625 -5.25 C 42.210938 -0.894531 35.960938 1.28125 28.390625 1.28125 C 20.523438 1.28125 14.15625 -0.882812 9.28125 -5.21875 Z M 20.984375 -29.328125 C 19.023438 -27.390625 18.046875 -24.910156 18.046875 -21.890625 C 18.046875 -18.867188 18.984375 -16.398438 20.859375 -14.484375 C 22.742188 -12.578125 25.222656 -11.625 28.296875 -11.625 C 31.265625 -11.625 33.703125 -12.59375 35.609375 -14.53125 C 37.515625 -16.46875 38.46875 -18.921875 38.46875 -21.890625 C 38.46875 -24.910156 37.484375 -27.390625 35.515625 -29.328125 C 33.554688 -31.265625 31.148438 -32.234375 28.296875 -32.234375 C 25.390625 -32.234375 22.953125 -31.265625 20.984375 -29.328125 Z M 20.984375 -29.328125 "/></g></g></g><g fill="#2b70e4" fill-opacity="1"><g transform="translate(79.52725, 98.171452)"><g><path d="M 24.203125 -45.140625 C 26.703125 -45.140625 29.175781 -44.851562 31.625 -44.28125 C 34.082031 -43.71875 35.910156 -43.148438 37.109375 -42.578125 L 38.90625 -41.71875 L 33.9375 -31.8125 C 30.519531 -33.632812 27.273438 -34.546875 24.203125 -34.546875 C 22.484375 -34.546875 21.269531 -34.359375 20.5625 -33.984375 C 19.851562 -33.617188 19.5 -32.921875 19.5 -31.890625 C 19.5 -31.660156 19.523438 -31.429688 19.578125 -31.203125 C 19.640625 -30.972656 19.753906 -30.757812 19.921875 -30.5625 C 20.085938 -30.363281 20.242188 -30.191406 20.390625 -30.046875 C 20.535156 -29.910156 20.773438 -29.753906 21.109375 -29.578125 C 21.453125 -29.410156 21.722656 -29.28125 21.921875 -29.1875 C 22.128906 -29.101562 22.457031 -28.976562 22.90625 -28.8125 C 23.363281 -28.644531 23.707031 -28.515625 23.9375 -28.421875 C 24.164062 -28.335938 24.550781 -28.207031 25.09375 -28.03125 C 25.632812 -27.863281 26.046875 -27.753906 26.328125 -27.703125 C 28.097656 -27.191406 29.640625 -26.617188 30.953125 -25.984375 C 32.265625 -25.359375 33.644531 -24.503906 35.09375 -23.421875 C 36.550781 -22.335938 37.675781 -20.96875 38.46875 -19.3125 C 39.269531 -17.664062 39.671875 -15.789062 39.671875 -13.6875 C 39.671875 -3.707031 32.742188 1.28125 18.890625 1.28125 C 15.753906 1.28125 12.773438 0.796875 9.953125 -0.171875 C 7.140625 -1.140625 5.101562 -2.109375 3.84375 -3.078125 L 1.96875 -4.609375 L 8.125 -14.96875 C 8.582031 -14.5625 9.179688 -14.085938 9.921875 -13.546875 C 10.660156 -13.003906 12 -12.265625 13.9375 -11.328125 C 15.875 -10.390625 17.554688 -9.921875 18.984375 -9.921875 C 22.117188 -9.921875 23.6875 -10.972656 23.6875 -13.078125 C 23.6875 -14.046875 23.285156 -14.800781 22.484375 -15.34375 C 21.691406 -15.882812 20.335938 -16.5 18.421875 -17.1875 C 16.515625 -17.875 15.019531 -18.5 13.9375 -19.0625 C 11.195312 -20.488281 9.03125 -22.097656 7.4375 -23.890625 C 5.84375 -25.691406 5.046875 -28.070312 5.046875 -31.03125 C 5.046875 -35.476562 6.769531 -38.941406 10.21875 -41.421875 C 13.664062 -43.898438 18.328125 -45.140625 24.203125 -45.140625 Z M 24.203125 -45.140625 "/></g></g></g><g fill="#2b70e4" fill-opacity="1"><g transform="translate(113.548128, 98.171452)"><g><path d="M 49.5 -19.84375 L 17.703125 -19.84375 C 17.703125 -16.757812 18.695312 -14.472656 20.6875 -12.984375 C 22.6875 -11.503906 24.851562 -10.765625 27.1875 -10.765625 C 29.632812 -10.765625 31.570312 -11.09375 33 -11.75 C 34.425781 -12.40625 36.050781 -13.703125 37.875 -15.640625 L 48.828125 -10.171875 C 44.265625 -2.535156 36.679688 1.28125 26.078125 1.28125 C 19.460938 1.28125 13.789062 -0.984375 9.0625 -5.515625 C 4.332031 -10.046875 1.96875 -15.503906 1.96875 -21.890625 C 1.96875 -28.273438 4.332031 -33.742188 9.0625 -38.296875 C 13.789062 -42.859375 19.460938 -45.140625 26.078125 -45.140625 C 33.035156 -45.140625 38.691406 -43.128906 43.046875 -39.109375 C 47.410156 -35.097656 49.59375 -29.359375 49.59375 -21.890625 C 49.59375 -20.859375 49.5625 -20.175781 49.5 -19.84375 Z M 18.125 -28.21875 L 34.796875 -28.21875 C 34.453125 -30.5 33.550781 -32.25 32.09375 -33.46875 C 30.644531 -34.695312 28.78125 -35.3125 26.5 -35.3125 C 24 -35.3125 22.003906 -34.65625 20.515625 -33.34375 C 19.035156 -32.03125 18.238281 -30.320312 18.125 -28.21875 Z M 18.125 -28.21875 "/></g></g></g><g fill="#2b70e4" fill-opacity="1"><g transform="translate(157.057886, 98.171452)"><g><path d="M 7.6875 -43.859375 L 7.6875 -60.1875 L 22.828125 -60.1875 L 22.828125 -43.859375 L 32.0625 -43.859375 L 32.0625 -32.3125 L 22.828125 -32.3125 L 22.828125 -18.375 C 22.828125 -14.332031 23.96875 -12.3125 26.25 -12.3125 C 26.820312 -12.3125 27.421875 -12.425781 28.046875 -12.65625 C 28.671875 -12.882812 29.15625 -13.113281 29.5 -13.34375 L 30.015625 -13.6875 L 33.765625 -1.453125 C 30.523438 0.367188 26.820312 1.28125 22.65625 1.28125 C 19.800781 1.28125 17.347656 0.785156 15.296875 -0.203125 C 13.242188 -1.203125 11.691406 -2.539062 10.640625 -4.21875 C 9.585938 -5.90625 8.832031 -7.675781 8.375 -9.53125 C 7.914062 -11.382812 7.6875 -13.363281 7.6875 -15.46875 L 7.6875 -32.3125 L 1.375 -32.3125 L 1.375 -43.859375 Z M 7.6875 -43.859375 "/></g></g></g><g fill="#2b70e4" fill-opacity="1"><g transform="translate(182.786669, 98.171452)"><g><path d="M 5.125 0 L 5.125 -43.859375 L 20.265625 -43.859375 L 20.265625 -37.53125 L 20.4375 -37.53125 C 20.550781 -37.757812 20.734375 -38.046875 20.984375 -38.390625 C 21.242188 -38.734375 21.800781 -39.332031 22.65625 -40.1875 C 23.507812 -41.039062 24.421875 -41.804688 25.390625 -42.484375 C 26.359375 -43.171875 27.613281 -43.785156 29.15625 -44.328125 C 30.695312 -44.867188 32.265625 -45.140625 33.859375 -45.140625 C 35.515625 -45.140625 37.140625 -44.910156 38.734375 -44.453125 C 40.328125 -44.003906 41.492188 -43.550781 42.234375 -43.09375 L 43.4375 -42.40625 L 37.109375 -29.578125 C 35.222656 -31.179688 32.597656 -31.984375 29.234375 -31.984375 C 27.410156 -31.984375 25.84375 -31.582031 24.53125 -30.78125 C 23.226562 -29.976562 22.304688 -29.003906 21.765625 -27.859375 C 21.222656 -26.722656 20.835938 -25.753906 20.609375 -24.953125 C 20.378906 -24.160156 20.265625 -23.535156 20.265625 -23.078125 L 20.265625 0 Z M 5.125 0 "/></g></g></g><g fill="#2b70e4" fill-opacity="1"><g transform="translate(217.320447, 98.171452)"><g><path d="M 8.125 -5.421875 C 4.019531 -9.898438 1.96875 -15.390625 1.96875 -21.890625 C 1.96875 -28.390625 4.019531 -33.890625 8.125 -38.390625 C 12.226562 -42.890625 17.441406 -45.140625 23.765625 -45.140625 C 29.578125 -45.140625 34.367188 -43.316406 38.140625 -39.671875 L 38.140625 -43.859375 L 53.265625 -43.859375 L 53.265625 0 L 38.296875 0 L 38.296875 -4.953125 L 38.140625 -4.953125 C 34.367188 -0.796875 29.578125 1.28125 23.765625 1.28125 C 17.441406 1.28125 12.226562 -0.953125 8.125 -5.421875 Z M 20.984375 -29.328125 C 19.023438 -27.390625 18.046875 -24.910156 18.046875 -21.890625 C 18.046875 -18.867188 18.984375 -16.398438 20.859375 -14.484375 C 22.742188 -12.578125 25.222656 -11.625 28.296875 -11.625 C 31.265625 -11.625 33.703125 -12.59375 35.609375 -14.53125 C 37.515625 -16.46875 38.46875 -18.921875 38.46875 -21.890625 C 38.46875 -24.910156 37.484375 -27.390625 35.515625 -29.328125 C 33.554688 -31.265625 31.148438 -32.234375 28.296875 -32.234375 C 25.390625 -32.234375 22.953125 -31.265625 20.984375 -29.328125 Z M 20.984375 -29.328125 "/></g></g></g><g fill="#2b70e4" fill-opacity="1"><g transform="translate(267.669037, 98.171452)"><g><path d="M 5.125 0 L 5.125 -43.859375 L 20.265625 -43.859375 L 20.265625 -39.25 L 20.4375 -39.25 C 24.363281 -43.175781 28.550781 -45.140625 33 -45.140625 C 35.164062 -45.140625 37.316406 -44.851562 39.453125 -44.28125 C 41.597656 -43.71875 43.648438 -42.835938 45.609375 -41.640625 C 47.578125 -40.441406 49.171875 -38.742188 50.390625 -36.546875 C 51.617188 -34.359375 52.234375 -31.8125 52.234375 -28.90625 L 52.234375 0 L 37.109375 0 L 37.109375 -24.796875 C 37.109375 -27.078125 36.378906 -29.070312 34.921875 -30.78125 C 33.472656 -32.488281 31.578125 -33.34375 29.234375 -33.34375 C 26.960938 -33.34375 24.898438 -32.457031 23.046875 -30.6875 C 21.191406 -28.925781 20.265625 -26.960938 20.265625 -24.796875 L 20.265625 0 Z M 5.125 0 "/></g></g></g><g fill="#2b70e4" fill-opacity="1"><g transform="translate(316.136964, 98.171452)"><g/></g></g><g fill="#2b70e4" fill-opacity="1"><g transform="translate(331.436517, 98.171452)"><g><path d="M 14.875 -18.296875 C 17.613281 -18.296875 19.9375 -17.335938 21.84375 -15.421875 C 23.75 -13.515625 24.703125 -11.195312 24.703125 -8.46875 C 24.703125 -5.789062 23.75 -3.492188 21.84375 -1.578125 C 19.9375 0.328125 17.613281 1.28125 14.875 1.28125 C 12.195312 1.28125 9.898438 0.328125 7.984375 -1.578125 C 6.078125 -3.492188 5.125 -5.789062 5.125 -8.46875 C 5.125 -11.195312 6.078125 -13.515625 7.984375 -15.421875 C 9.898438 -17.335938 12.195312 -18.296875 14.875 -18.296875 Z M 14.875 -18.296875 "/></g></g></g><g fill="#ffffff" fill-opacity="1"><g transform="translate(171.06204, 121.339457)"><g><path d="M 5.71875 -9.21875 C 6.007812 -9.21875 6.265625 -9.140625 6.484375 -8.984375 C 6.703125 -8.828125 6.8125 -8.632812 6.8125 -8.40625 C 6.8125 -8.132812 6.738281 -7.925781 6.59375 -7.78125 C 6.445312 -7.632812 6.273438 -7.5625 6.078125 -7.5625 C 5.972656 -7.5625 5.816406 -7.597656 5.609375 -7.671875 C 5.367188 -7.753906 5.179688 -7.796875 5.046875 -7.796875 C 4.679688 -7.796875 4.332031 -7.671875 4 -7.421875 C 3.664062 -7.171875 3.390625 -6.832031 3.171875 -6.40625 C 2.960938 -5.976562 2.859375 -5.5 2.859375 -4.96875 L 2.859375 -0.828125 C 2.859375 -0.597656 2.78125 -0.398438 2.625 -0.234375 C 2.46875 -0.078125 2.269531 0 2.03125 0 C 1.789062 0 1.59375 -0.078125 1.4375 -0.234375 C 1.289062 -0.390625 1.21875 -0.585938 1.21875 -0.828125 L 1.21875 -8.1875 C 1.21875 -8.414062 1.296875 -8.609375 1.453125 -8.765625 C 1.609375 -8.929688 1.800781 -9.015625 2.03125 -9.015625 C 2.269531 -9.015625 2.46875 -8.929688 2.625 -8.765625 C 2.78125 -8.609375 2.859375 -8.414062 2.859375 -8.1875 L 2.859375 -7.3125 C 3.109375 -7.875 3.484375 -8.328125 3.984375 -8.671875 C 4.492188 -9.023438 5.070312 -9.207031 5.71875 -9.21875 Z M 5.71875 -9.21875 "/></g></g></g><g fill="#ffffff" fill-opacity="1"><g transform="translate(189.385656, 121.339457)"><g><path d="M 9.140625 -4.84375 C 9.128906 -4.644531 9.039062 -4.472656 8.875 -4.328125 C 8.71875 -4.179688 8.53125 -4.109375 8.3125 -4.109375 L 2.25 -4.109375 C 2.332031 -3.273438 2.648438 -2.601562 3.203125 -2.09375 C 3.765625 -1.59375 4.445312 -1.34375 5.25 -1.34375 C 5.800781 -1.34375 6.25 -1.421875 6.59375 -1.578125 C 6.9375 -1.742188 7.238281 -1.953125 7.5 -2.203125 C 7.675781 -2.304688 7.84375 -2.359375 8 -2.359375 C 8.195312 -2.359375 8.359375 -2.285156 8.484375 -2.140625 C 8.617188 -2.003906 8.6875 -1.847656 8.6875 -1.671875 C 8.6875 -1.429688 8.570312 -1.210938 8.34375 -1.015625 C 8.007812 -0.679688 7.566406 -0.398438 7.015625 -0.171875 C 6.460938 0.0546875 5.898438 0.171875 5.328125 0.171875 C 4.398438 0.171875 3.582031 -0.0195312 2.875 -0.40625 C 2.175781 -0.800781 1.632812 -1.347656 1.25 -2.046875 C 0.863281 -2.742188 0.671875 -3.535156 0.671875 -4.421875 C 0.671875 -5.378906 0.867188 -6.222656 1.265625 -6.953125 C 1.660156 -7.679688 2.179688 -8.238281 2.828125 -8.625 C 3.472656 -9.019531 4.171875 -9.21875 4.921875 -9.21875 C 5.648438 -9.21875 6.335938 -9.023438 6.984375 -8.640625 C 7.628906 -8.265625 8.144531 -7.742188 8.53125 -7.078125 C 8.925781 -6.421875 9.128906 -5.675781 9.140625 -4.84375 Z M 4.921875 -7.703125 C 4.273438 -7.703125 3.71875 -7.519531 3.25 -7.15625 C 2.78125 -6.800781 2.472656 -6.242188 2.328125 -5.484375 L 7.390625 -5.484375 L 7.390625 -5.625 C 7.335938 -6.226562 7.066406 -6.722656 6.578125 -7.109375 C 6.085938 -7.503906 5.535156 -7.703125 4.921875 -7.703125 Z M 4.921875 -7.703125 "/></g></g></g><g fill="#ffffff" fill-opacity="1"><g transform="translate(210.409467, 121.339457)"><g><path d="M 0.703125 -1.40625 C 0.597656 -1.570312 0.546875 -1.726562 0.546875 -1.875 C 0.546875 -2.101562 0.664062 -2.296875 0.90625 -2.453125 C 1.019531 -2.535156 1.15625 -2.578125 1.3125 -2.578125 C 1.507812 -2.578125 1.695312 -2.492188 1.875 -2.328125 C 2.21875 -1.929688 2.585938 -1.632812 2.984375 -1.4375 C 3.378906 -1.25 3.851562 -1.15625 4.40625 -1.15625 C 4.84375 -1.164062 5.226562 -1.265625 5.5625 -1.453125 C 5.894531 -1.640625 6.0625 -1.945312 6.0625 -2.375 C 6.0625 -2.757812 5.890625 -3.054688 5.546875 -3.265625 C 5.210938 -3.472656 4.71875 -3.664062 4.0625 -3.84375 C 3.414062 -4.007812 2.878906 -4.1875 2.453125 -4.375 C 2.035156 -4.5625 1.679688 -4.835938 1.390625 -5.203125 C 1.097656 -5.566406 0.953125 -6.039062 0.953125 -6.625 C 0.953125 -7.132812 1.097656 -7.582031 1.390625 -7.96875 C 1.679688 -8.363281 2.066406 -8.671875 2.546875 -8.890625 C 3.035156 -9.109375 3.566406 -9.21875 4.140625 -9.21875 C 4.691406 -9.21875 5.238281 -9.113281 5.78125 -8.90625 C 6.332031 -8.695312 6.78125 -8.382812 7.125 -7.96875 C 7.257812 -7.800781 7.328125 -7.632812 7.328125 -7.46875 C 7.328125 -7.28125 7.234375 -7.101562 7.046875 -6.9375 C 6.929688 -6.832031 6.789062 -6.78125 6.625 -6.78125 C 6.414062 -6.78125 6.25 -6.847656 6.125 -6.984375 C 5.882812 -7.253906 5.585938 -7.460938 5.234375 -7.609375 C 4.890625 -7.765625 4.503906 -7.84375 4.078125 -7.84375 C 3.640625 -7.84375 3.269531 -7.753906 2.96875 -7.578125 C 2.664062 -7.398438 2.515625 -7.097656 2.515625 -6.671875 C 2.523438 -6.273438 2.695312 -5.976562 3.03125 -5.78125 C 3.375 -5.582031 3.894531 -5.394531 4.59375 -5.21875 C 5.195312 -5.050781 5.695312 -4.875 6.09375 -4.6875 C 6.5 -4.507812 6.835938 -4.238281 7.109375 -3.875 C 7.390625 -3.519531 7.53125 -3.046875 7.53125 -2.453125 C 7.53125 -1.921875 7.375 -1.457031 7.0625 -1.0625 C 6.757812 -0.664062 6.359375 -0.359375 5.859375 -0.140625 C 5.359375 0.0664062 4.828125 0.171875 4.265625 0.171875 C 3.546875 0.171875 2.878906 0.046875 2.265625 -0.203125 C 1.648438 -0.453125 1.128906 -0.851562 0.703125 -1.40625 Z M 0.703125 -1.40625 "/></g></g></g><g fill="#ffffff" fill-opacity="1"><g transform="translate(229.833805, 121.339457)"><g><path d="M 9.140625 -4.84375 C 9.128906 -4.644531 9.039062 -4.472656 8.875 -4.328125 C 8.71875 -4.179688 8.53125 -4.109375 8.3125 -4.109375 L 2.25 -4.109375 C 2.332031 -3.273438 2.648438 -2.601562 3.203125 -2.09375 C 3.765625 -1.59375 4.445312 -1.34375 5.25 -1.34375 C 5.800781 -1.34375 6.25 -1.421875 6.59375 -1.578125 C 6.9375 -1.742188 7.238281 -1.953125 7.5 -2.203125 C 7.675781 -2.304688 7.84375 -2.359375 8 -2.359375 C 8.195312 -2.359375 8.359375 -2.285156 8.484375 -2.140625 C 8.617188 -2.003906 8.6875 -1.847656 8.6875 -1.671875 C 8.6875 -1.429688 8.570312 -1.210938 8.34375 -1.015625 C 8.007812 -0.679688 7.566406 -0.398438 7.015625 -0.171875 C 6.460938 0.0546875 5.898438 0.171875 5.328125 0.171875 C 4.398438 0.171875 3.582031 -0.0195312 2.875 -0.40625 C 2.175781 -0.800781 1.632812 -1.347656 1.25 -2.046875 C 0.863281 -2.742188 0.671875 -3.535156 0.671875 -4.421875 C 0.671875 -5.378906 0.867188 -6.222656 1.265625 -6.953125 C 1.660156 -7.679688 2.179688 -8.238281 2.828125 -8.625 C 3.472656 -9.019531 4.171875 -9.21875 4.921875 -9.21875 C 5.648438 -9.21875 6.335938 -9.023438 6.984375 -8.640625 C 7.628906 -8.265625 8.144531 -7.742188 8.53125 -7.078125 C 8.925781 -6.421875 9.128906 -5.675781 9.140625 -4.84375 Z M 4.921875 -7.703125 C 4.273438 -7.703125 3.71875 -7.519531 3.25 -7.15625 C 2.78125 -6.800781 2.472656 -6.242188 2.328125 -5.484375 L 7.390625 -5.484375 L 7.390625 -5.625 C 7.335938 -6.226562 7.066406 -6.722656 6.578125 -7.109375 C 6.085938 -7.503906 5.535156 -7.703125 4.921875 -7.703125 Z M 4.921875 -7.703125 "/></g></g></g><g fill="#ffffff" fill-opacity="1"><g transform="translate(250.857616, 121.339457)"><g><path d="M 8.53125 -9.140625 C 8.769531 -9.140625 8.96875 -9.0625 9.125 -8.90625 C 9.28125 -8.75 9.359375 -8.546875 9.359375 -8.296875 L 9.359375 -0.828125 C 9.359375 -0.597656 9.28125 -0.398438 9.125 -0.234375 C 8.96875 -0.078125 8.769531 0 8.53125 0 C 8.289062 0 8.09375 -0.078125 7.9375 -0.234375 C 7.789062 -0.390625 7.71875 -0.585938 7.71875 -0.828125 L 7.71875 -1.265625 C 7.425781 -0.867188 7.019531 -0.53125 6.5 -0.25 C 5.988281 0.03125 5.429688 0.171875 4.828125 0.171875 C 4.054688 0.171875 3.347656 -0.0234375 2.703125 -0.421875 C 2.066406 -0.828125 1.566406 -1.390625 1.203125 -2.109375 C 0.847656 -2.828125 0.671875 -3.632812 0.671875 -4.53125 C 0.671875 -5.414062 0.847656 -6.21875 1.203125 -6.9375 C 1.566406 -7.65625 2.0625 -8.210938 2.6875 -8.609375 C 3.320312 -9.015625 4.019531 -9.21875 4.78125 -9.21875 C 5.382812 -9.21875 5.945312 -9.09375 6.46875 -8.84375 C 7 -8.59375 7.414062 -8.269531 7.71875 -7.875 L 7.71875 -8.296875 C 7.71875 -8.535156 7.789062 -8.734375 7.9375 -8.890625 C 8.09375 -9.054688 8.289062 -9.140625 8.53125 -9.140625 Z M 5.015625 -1.34375 C 5.554688 -1.34375 6.035156 -1.476562 6.453125 -1.75 C 6.878906 -2.03125 7.207031 -2.410156 7.4375 -2.890625 C 7.675781 -3.367188 7.796875 -3.914062 7.796875 -4.53125 C 7.796875 -5.125 7.675781 -5.660156 7.4375 -6.140625 C 7.207031 -6.617188 6.878906 -7 6.453125 -7.28125 C 6.035156 -7.5625 5.554688 -7.703125 5.015625 -7.703125 C 4.484375 -7.703125 4.003906 -7.5625 3.578125 -7.28125 C 3.160156 -7.007812 2.832031 -6.632812 2.59375 -6.15625 C 2.363281 -5.675781 2.25 -5.132812 2.25 -4.53125 C 2.25 -3.914062 2.363281 -3.367188 2.59375 -2.890625 C 2.832031 -2.410156 3.160156 -2.03125 3.578125 -1.75 C 4.003906 -1.476562 4.484375 -1.34375 5.015625 -1.34375 Z M 5.015625 -1.34375 "/></g></g></g><g fill="#ffffff" fill-opacity="1"><g transform="translate(272.638189, 121.339457)"><g><path d="M 5.71875 -9.21875 C 6.007812 -9.21875 6.265625 -9.140625 6.484375 -8.984375 C 6.703125 -8.828125 6.8125 -8.632812 6.8125 -8.40625 C 6.8125 -8.132812 6.738281 -7.925781 6.59375 -7.78125 C 6.445312 -7.632812 6.273438 -7.5625 6.078125 -7.5625 C 5.972656 -7.5625 5.816406 -7.597656 5.609375 -7.671875 C 5.367188 -7.753906 5.179688 -7.796875 5.046875 -7.796875 C 4.679688 -7.796875 4.332031 -7.671875 4 -7.421875 C 3.664062 -7.171875 3.390625 -6.832031 3.171875 -6.40625 C 2.960938 -5.976562 2.859375 -5.5 2.859375 -4.96875 L 2.859375 -0.828125 C 2.859375 -0.597656 2.78125 -0.398438 2.625 -0.234375 C 2.46875 -0.078125 2.269531 0 2.03125 0 C 1.789062 0 1.59375 -0.078125 1.4375 -0.234375 C 1.289062 -0.390625 1.21875 -0.585938 1.21875 -0.828125 L 1.21875 -8.1875 C 1.21875 -8.414062 1.296875 -8.609375 1.453125 -8.765625 C 1.609375 -8.929688 1.800781 -9.015625 2.03125 -9.015625 C 2.269531 -9.015625 2.46875 -8.929688 2.625 -8.765625 C 2.78125 -8.609375 2.859375 -8.414062 2.859375 -8.1875 L 2.859375 -7.3125 C 3.109375 -7.875 3.484375 -8.328125 3.984375 -8.671875 C 4.492188 -9.023438 5.070312 -9.207031 5.71875 -9.21875 Z M 5.71875 -9.21875 "/></g></g></g><g fill="#ffffff" fill-opacity="1"><g transform="translate(290.961804, 121.339457)"><g><path d="M 5.140625 -9.21875 C 6.046875 -9.21875 6.800781 -9.070312 7.40625 -8.78125 C 8.007812 -8.5 8.3125 -8.132812 8.3125 -7.6875 C 8.3125 -7.488281 8.25 -7.3125 8.125 -7.15625 C 8 -7.007812 7.835938 -6.9375 7.640625 -6.9375 C 7.492188 -6.9375 7.375 -6.957031 7.28125 -7 C 7.195312 -7.050781 7.082031 -7.125 6.9375 -7.21875 C 6.863281 -7.289062 6.753906 -7.375 6.609375 -7.46875 C 6.472656 -7.53125 6.273438 -7.582031 6.015625 -7.625 C 5.765625 -7.675781 5.535156 -7.703125 5.328125 -7.703125 C 4.734375 -7.703125 4.207031 -7.5625 3.75 -7.28125 C 3.289062 -7.007812 2.9375 -6.628906 2.6875 -6.140625 C 2.4375 -5.660156 2.3125 -5.125 2.3125 -4.53125 C 2.3125 -3.914062 2.429688 -3.367188 2.671875 -2.890625 C 2.921875 -2.410156 3.269531 -2.03125 3.71875 -1.75 C 4.164062 -1.476562 4.675781 -1.34375 5.25 -1.34375 C 5.84375 -1.34375 6.320312 -1.429688 6.6875 -1.609375 C 6.769531 -1.660156 6.878906 -1.738281 7.015625 -1.84375 C 7.128906 -1.9375 7.226562 -2.003906 7.3125 -2.046875 C 7.40625 -2.085938 7.515625 -2.109375 7.640625 -2.109375 C 7.867188 -2.109375 8.046875 -2.035156 8.171875 -1.890625 C 8.304688 -1.753906 8.375 -1.570312 8.375 -1.34375 C 8.375 -1.101562 8.222656 -0.863281 7.921875 -0.625 C 7.617188 -0.394531 7.210938 -0.203125 6.703125 -0.046875 C 6.191406 0.0976562 5.644531 0.171875 5.0625 0.171875 C 4.1875 0.171875 3.414062 -0.03125 2.75 -0.4375 C 2.082031 -0.84375 1.566406 -1.40625 1.203125 -2.125 C 0.847656 -2.84375 0.671875 -3.644531 0.671875 -4.53125 C 0.671875 -5.40625 0.859375 -6.203125 1.234375 -6.921875 C 1.617188 -7.640625 2.148438 -8.203125 2.828125 -8.609375 C 3.503906 -9.015625 4.273438 -9.21875 5.140625 -9.21875 Z M 5.140625 -9.21875 "/></g></g></g><g fill="#ffffff" fill-opacity="1"><g transform="translate(311.022488, 121.339457)"><g><path d="M 5.71875 -9.171875 C 7.726562 -9.171875 8.734375 -7.921875 8.734375 -5.421875 L 8.734375 -0.828125 C 8.734375 -0.597656 8.65625 -0.398438 8.5 -0.234375 C 8.351562 -0.078125 8.15625 0 7.90625 0 C 7.675781 0 7.484375 -0.078125 7.328125 -0.234375 C 7.179688 -0.398438 7.109375 -0.597656 7.109375 -0.828125 L 7.109375 -5.421875 C 7.109375 -6.910156 6.476562 -7.65625 5.21875 -7.65625 C 4.539062 -7.65625 3.976562 -7.4375 3.53125 -7 C 3.082031 -6.570312 2.859375 -6.046875 2.859375 -5.421875 L 2.859375 -0.828125 C 2.859375 -0.597656 2.78125 -0.398438 2.625 -0.234375 C 2.46875 -0.078125 2.269531 0 2.03125 0 C 1.789062 0 1.59375 -0.078125 1.4375 -0.234375 C 1.289062 -0.390625 1.21875 -0.585938 1.21875 -0.828125 L 1.21875 -11.90625 C 1.21875 -12.132812 1.296875 -12.328125 1.453125 -12.484375 C 1.609375 -12.648438 1.800781 -12.734375 2.03125 -12.734375 C 2.269531 -12.734375 2.46875 -12.648438 2.625 -12.484375 C 2.78125 -12.328125 2.859375 -12.132812 2.859375 -11.90625 L 2.859375 -7.546875 C 3.140625 -7.992188 3.535156 -8.375 4.046875 -8.6875 C 4.566406 -9.007812 5.125 -9.171875 5.71875 -9.171875 Z M 5.71875 -9.171875 "/></g></g></g></svg>